<?xml version="1.0" encoding="UTF-8"?> <svg xmlns="http://www.w3.org/2000/svg" width="67" height="178" fill="none"><g fill="#434242" fill-rule="evenodd" clip-path="url(#a)" clip-rule="evenodd"><path d="M46.917 82.723c3.761-.29 6.992-2.037 9.267-5.707 7.038-11.353 3.49-24.03-4.902-35.745C39.028 24.166 16.304 9.161 2.36 3.801c-.66-.255-1.284.071-1.393.724-.112.655.333 1.392.993 1.647 13.533 5.202 35.6 19.744 47.494 36.344 7.705 10.757 11.083 22.405 4.617 32.831-1.922 3.105-4.655 4.569-7.833 4.823a137 137 0 0 0-2.016-6.659c-1.996-6.02-9.717-21.01-18.215-29.8-6.097-6.305-12.585-9.421-17.851-4.965-2.927 2.477-3.273 6.509-1.694 11.239 2.167 6.503 8.088 14.41 15.246 20.81 5.959 5.33 12.76 9.611 18.894 11.242 1.349.356 2.666.592 3.937.683 8.079 31.344 6.147 68.157-6.226 92.827-.28.563-.02 1.359.588 1.777.606.421 1.327.302 1.609-.258 12.573-25.074 14.572-62.454 6.407-94.343m-3.067-2.578a132 132 0 0 0-1.904-6.26c-1.914-5.769-9.31-20.128-17.453-28.55-4.996-5.17-10.283-8.139-14.6-4.487-2.265 1.92-2.378 5.095-1.16 8.758 1.345 4.028 4.267 8.613 8.027 12.992 5.707 6.648 13.349 12.815 20.512 15.792 2.27.944 4.49 1.562 6.578 1.755"></path><path d="M26.104 128.261c8.208 13.963 12.143 32.633 12.3 47.592.007.688.556 1.355 1.224 1.489.669.134 1.207-.313 1.2-1.001-.16-15.427-4.269-34.674-12.73-49.07-.377-.644-1.133-.947-1.684-.673-.55.272-.688 1.018-.31 1.663"></path><path d="M41.118 176.478c3.308-11.186 14.201-20.988 24.675-24.932.581-.218.785-.937.45-1.603-.333-.667-1.072-1.031-1.653-.812-10.972 4.132-22.335 14.45-25.801 26.169-.185.621.19 1.391.832 1.717.644.325 1.314.084 1.497-.539"></path></g><defs><clipPath id="a"><path fill="#fff" d="M0 0h67v178H0z"></path></clipPath></defs></svg> 