<?xml version="1.0" encoding="UTF-8"?> <svg xmlns="http://www.w3.org/2000/svg" width="95" height="79" fill="none"><path fill="#99B799" fill-rule="evenodd" d="M38.204 52.858c-1.853 1.694-2.829 3.934-2.516 6.79.968 8.835 8.025 14.023 17.227 16.72 13.436 3.937 31.495 2.48 41-.43.45-.137.643-.564.433-.95-.21-.39-.745-.594-1.196-.456-9.224 2.824-26.75 4.254-39.79.433-8.448-2.476-14.994-7.194-15.882-15.309-.267-2.415.565-4.303 2.126-5.739a91 91 0 0 0 3.787 2.662c3.514 2.336 13.707 7.024 21.765 8.145 5.78.803 10.457-.225 11.39-4.72.517-2.498-.955-4.752-3.722-6.583-3.802-2.518-10.147-4.233-16.522-4.651-5.308-.35-10.628.196-14.51 1.857-.853.367-1.64.784-2.344 1.257C22.363 38.774 8.28 18.693 4.646.692c-.085-.41-.547-.72-1.038-.69-.49.028-.82.386-.737.796 3.695 18.293 17.976 38.7 35.332 52.06m2.664.093a88 88 0 0 0 3.564 2.499c3.369 2.238 13.133 6.728 20.853 7.802 4.738.66 8.726.048 9.49-3.636.4-1.935-.843-3.645-2.984-5.065-2.356-1.559-5.767-2.763-9.533-3.516-5.717-1.143-12.25-1.24-17.224.138-1.576.436-2.994 1.023-4.166 1.778" clip-rule="evenodd"></path><path fill="#99B799" fill-rule="evenodd" d="M30.434 20.462C20.407 16.512 10.689 8.343 4.472.57 4.186.212 3.625.088 3.22.29c-.406.204-.504.66-.218 1.017 6.41 8.017 16.456 16.418 26.792 20.49.463.183.983.032 1.16-.337.176-.368-.058-.816-.52-.999" clip-rule="evenodd"></path><path fill="#99B799" fill-rule="evenodd" d="M2.793 1.355C5.647 8.572 3.96 18.175.09 24.537c-.215.353-.027.813.421 1.025.448.213.985.1 1.2-.252C5.764 18.645 7.487 8.578 4.497 1.017c-.158-.401-.67-.651-1.14-.559-.47.094-.723.495-.564.897" clip-rule="evenodd"></path></svg> 