<?xml version="1.0" encoding="UTF-8"?> <svg xmlns="http://www.w3.org/2000/svg" width="84" height="74" fill="none"><path fill="#000" fill-opacity=".6" fill-rule="evenodd" d="M4.833 22.262c2.346-6.22 3.83-12.816 5.223-19.22.295-1.38-.56-2.759-1.913-2.977-1.347-.318-2.681.57-2.967 1.85C3.832 8.12 2.415 14.521.162 20.447c-.487 1.262.16 2.725 1.449 3.239 1.287.514 2.734-.163 3.222-1.425m23.679 21.541c11.367-9.347 21.5-20.107 33.13-29.23 1.082-.809 1.275-2.398.425-3.476-.852-1.078-2.421-1.315-3.512-.407-11.662 9.12-21.824 19.878-33.221 29.222a2.58 2.58 0 0 0-.343 3.583c.885.981 2.454 1.218 3.521.308M67.11 66.546l-18.06-.674c-1.372-.12-2.536.984-2.591 2.384-.054 1.401 1.027 2.499 2.401 2.619l18.086.676c1.381.02 2.539-1.084 2.586-2.485.038-1.302-1.042-2.5-2.422-2.52" clip-rule="evenodd"></path></svg> 